<?xml version="1.0" encoding="utf-8"?>
<!-- Generator: Adobe Illustrator 16.0.0, SVG Export Plug-In . SVG Version: 6.00 Build 0)  -->
<!DOCTYPE svg PUBLIC "-//W3C//DTD SVG 1.1//EN" "http://www.w3.org/Graphics/SVG/1.1/DTD/svg11.dtd">
<svg version="1.1" xmlns="http://www.w3.org/2000/svg" xmlns:xlink="http://www.w3.org/1999/xlink" x="0px" y="0px" width="838px"
	 height="450px" viewBox="0 0 838 450" enable-background="new 0 0 838 450" xml:space="preserve">
<g id="Layer_4">
</g>
<g id="Layer_2">
	<g>
		<path fill="#009588" d="M204.174,106.881c-2.021,2.111-4.703,3.574-7.711,4.081L90.064,358.926h117.968V113.671
			C206.505,113.671,205.134,111.046,204.174,106.881z"/>
		<path fill="#058A7B" d="M219.601,110.961c-3.008-0.507-5.69-1.969-7.711-4.081c-0.959,4.165-2.331,6.791-3.858,6.791v245.254H326
			L219.601,110.961z"/>
		<path fill="#EEEEEE" d="M208.032,113.671V84l-11.569,26.961c3.008-0.507,5.69-1.969,7.711-4.081
			C205.134,111.046,206.505,113.671,208.032,113.671z"/>
		<path fill="#E0E0E0" d="M208.032,113.671c1.527,0,2.898-2.625,3.858-6.791c2.021,2.111,4.703,3.574,7.711,4.081L208.032,84
			V113.671z"/>
	</g>
	<g>
		<path fill="#058A7B" d="M447.338,93.383c-7.488-0.591-14.186-3.962-19.081-9.079c-2.055,8.913-4.988,14.532-8.257,14.532V398
			h158.046L447.338,93.383z"/>
		<path fill="#009588" d="M411.743,84.304c-4.896,5.116-11.592,8.488-19.081,9.079L261.955,398H420V98.835
			C416.731,98.835,413.797,93.217,411.743,84.304z"/>
		<path fill="#E0E0E0" d="M420,98.835c3.269,0,6.202-5.619,8.257-14.532c4.896,5.117,11.593,8.488,19.081,9.079L420,29.671V98.835z"
			/>
		<path fill="#EEEEEE" d="M420,98.835V29.671l-27.338,63.711c7.489-0.591,14.186-3.963,19.081-9.079
			C413.797,93.217,416.731,98.835,420,98.835z"/>
	</g>
	<path fill="#009588" d="M632.968,358.926V113.671c-1.527,0-2.898-2.625-3.858-6.791c-2.021,2.111-4.702,3.574-7.711,4.081
		L515,358.926"/>
	<path fill="#058A7B" d="M750.936,358.926L644.537,110.961c-3.009-0.507-5.69-1.969-7.711-4.081
		c-0.96,4.165-2.331,6.791-3.858,6.791v245.254"/>
	<path fill="#EEEEEE" d="M632.968,84l-11.569,26.961c3.009-0.507,5.69-1.969,7.711-4.081c0.96,4.165,2.331,6.791,3.858,6.791V84"/>
	<path fill="#E0E0E0" d="M632.968,84v29.671c1.527,0,2.898-2.625,3.858-6.791c2.021,2.111,4.702,3.574,7.711,4.081L632.968,84"/>
</g>
<g id="Layer_3">
</g>
<g id="Layer_1">
	<path id="whiteHill" fill="#A2BC3D" d="M336,540.323C336,406.771,448.372,298.5,587,298.5s251,108.271,251,241.823H587H336z"/>
	<path id="leftHill" fill="#6EA241" d="M0,538.5c0-129.79,113.94-235,254.5-235S509,408.71,509,538.5H254.5H0z"/>
	<g>
		<polygon fill="#6EA0AB" points="176.537,355.062 151.037,355.062 147.812,327.312 179.852,327.312 		"/>
		<polygon fill="#705A5E" points="147.812,327.312 163.777,299.659 179.743,327.312 		"/>
		<rect x="170.625" y="304.312" fill="#705A5E" width="4.973" height="15.82"/>
		<rect x="165.852" y="341.188" fill="#705A5E" width="8.52" height="13.875"/>
		<rect x="153.582" y="329.812" fill="#BCDEE8" width="7" height="7"/>
		<rect x="167.582" y="329.812" fill="#BCDEE8" width="7" height="7"/>
		<rect x="153.582" y="342.188" fill="#BCDEE8" width="7" height="7"/>
	</g>
	<g>
		<polygon fill="#A86D8C" points="341.12,365.302 315.62,365.302 312.395,337.552 344.435,337.552 		"/>
		<polygon fill="#705A5E" points="312.395,337.552 328.36,309.898 344.326,337.552 		"/>
		<rect x="335.208" y="314.552" fill="#705A5E" width="4.973" height="15.82"/>
		<rect x="330.435" y="351.427" fill="#705A5E" width="8.52" height="13.875"/>
		<rect x="318.165" y="340.052" fill="#BCDEE8" width="7" height="7"/>
		<rect x="332.165" y="340.052" fill="#BCDEE8" width="7" height="7"/>
		<rect x="318.165" y="352.427" fill="#BCDEE8" width="7" height="7"/>
	</g>
	<g>
		<polygon fill="#8EA86D" points="511.729,358.514 486.229,358.514 483.002,330.764 515.043,330.764 		"/>
		<polygon fill="#705A5E" points="483.002,330.764 498.969,303.11 514.934,330.764 		"/>
		<rect x="505.816" y="307.764" fill="#705A5E" width="4.973" height="15.82"/>
		<rect x="501.043" y="344.639" fill="#705A5E" width="8.52" height="13.875"/>
		<rect x="488.772" y="333.264" fill="#BCDEE8" width="7" height="7"/>
		<rect x="502.772" y="333.264" fill="#BCDEE8" width="7" height="7"/>
		<rect x="488.772" y="345.639" fill="#BCDEE8" width="7" height="7"/>
	</g>
	<g>
		<polygon fill="#A5A16D" points="629.653,430.859 604.153,430.859 600.928,403.109 632.968,403.109 		"/>
		<polygon fill="#705A5E" points="600.928,403.109 616.894,375.456 632.858,403.109 		"/>
		<rect x="623.741" y="380.109" fill="#705A5E" width="4.973" height="15.82"/>
		<rect x="618.968" y="416.984" fill="#705A5E" width="8.52" height="13.875"/>
		<rect x="606.698" y="405.609" fill="#BCDEE8" width="7" height="7"/>
		<rect x="620.698" y="405.609" fill="#BCDEE8" width="7" height="7"/>
		<rect x="606.698" y="417.984" fill="#BCDEE8" width="7" height="7"/>
	</g>
	<g>
		<polygon fill="#C98965" points="232.307,440.311 206.807,440.311 203.581,412.561 235.621,412.561 		"/>
		<polygon fill="#705A5E" points="203.581,412.561 219.547,384.907 235.512,412.561 		"/>
		<rect x="226.395" y="389.561" fill="#705A5E" width="4.973" height="15.82"/>
		<rect x="221.621" y="426.436" fill="#705A5E" width="8.52" height="13.875"/>
		<rect x="209.352" y="415.061" fill="#BCDEE8" width="7" height="7"/>
		<rect x="223.352" y="415.061" fill="#BCDEE8" width="7" height="7"/>
		<rect x="209.352" y="427.436" fill="#BCDEE8" width="7" height="7"/>
	</g>
	<g>
		<polygon fill="#A86D8B" points="669.274,347.835 643.774,347.835 640.549,320.085 672.589,320.085 		"/>
		<polygon fill="#705A5E" points="640.549,320.085 656.515,292.432 672.479,320.085 		"/>
		<rect x="663.362" y="297.085" fill="#705A5E" width="4.973" height="15.82"/>
		<rect x="658.589" y="333.96" fill="#705A5E" width="8.52" height="13.875"/>
		<rect x="646.319" y="322.585" fill="#BCDEE8" width="7" height="7"/>
		<rect x="660.319" y="322.585" fill="#BCDEE8" width="7" height="7"/>
		<rect x="646.319" y="334.96" fill="#BCDEE8" width="7" height="7"/>
	</g>
	<g>
		<polygon fill="#6EA0AB" points="449.043,433.312 423.543,433.312 420.318,405.562 452.357,405.562 		"/>
		<polygon fill="#705A5E" points="420.318,405.562 436.283,377.908 452.249,405.562 		"/>
		<rect x="443.131" y="382.562" fill="#705A5E" width="4.973" height="15.82"/>
		<rect x="438.357" y="419.437" fill="#705A5E" width="8.521" height="13.875"/>
		<rect x="426.088" y="408.062" fill="#BCDEE8" width="7" height="7"/>
		<rect x="440.088" y="408.062" fill="#BCDEE8" width="7" height="7"/>
		<rect x="426.088" y="420.437" fill="#BCDEE8" width="7" height="7"/>
	</g>
</g>
<g id="Layer_5">
	<g>
		<polygon fill="#324A27" points="66.544,381.627 66.544,318.887 83.584,381.627 		"/>
		<polyline fill="#5E9C4F" points="49.504,381.627 66.544,381.627 66.544,318.887 		"/>
		<rect x="65.23" y="381.465" fill="#795649" width="4.25" height="17.5"/>
	</g>
	<g>
		<polygon fill="#324A27" points="219.601,327.36 219.601,264.62 236.641,327.36 		"/>
		<polyline fill="#5E9C4F" points="202.561,327.36 219.601,327.36 219.601,264.62 		"/>
		<rect x="218.287" y="327.198" fill="#795649" width="4.25" height="17.5"/>
	</g>
	<g>
		<polygon fill="#324A27" points="392.663,376.068 392.663,313.328 409.702,376.068 		"/>
		<polyline fill="#5E9C4F" points="375.623,376.068 392.663,376.068 392.663,313.328 		"/>
		<rect x="391.348" y="375.906" fill="#795649" width="4.25" height="17.5"/>
	</g>
	<g>
		<polygon fill="#324A27" points="757.088,364.289 757.088,301.549 774.127,364.289 		"/>
		<polyline fill="#5E9C4F" points="740.047,364.289 757.088,364.289 757.088,301.549 		"/>
		<rect x="755.773" y="364.127" fill="#795649" width="4.25" height="17.5"/>
	</g>
	<g>
		<polygon fill="#324A27" points="685.478,421.666 685.478,358.926 702.519,421.666 		"/>
		<polyline fill="#5E9C4F" points="668.438,421.666 685.478,421.666 685.478,358.926 		"/>
		<rect x="684.163" y="421.504" fill="#795649" width="4.25" height="17.5"/>
	</g>
	<g>
		<polygon fill="#324A27" points="582.625,324.25 582.625,261.51 599.664,324.25 		"/>
		<polyline fill="#5E9C4F" points="565.584,324.25 582.625,324.25 582.625,261.51 		"/>
		<rect x="581.311" y="324.088" fill="#795649" width="4.25" height="17.5"/>
	</g>
	<g>
		<polygon fill="#324A27" points="284.056,411.402 284.056,348.662 301.096,411.402 		"/>
		<polyline fill="#5E9C4F" points="267.016,411.402 284.056,411.402 284.056,348.662 		"/>
		<rect x="282.742" y="411.24" fill="#795649" width="4.25" height="17.5"/>
	</g>
	<g>
		<polygon fill="#324A27" points="540.025,420.701 540.025,357.961 557.064,420.701 		"/>
		<polyline fill="#5E9C4F" points="522.984,420.701 540.025,420.701 540.025,357.961 		"/>
		<rect x="538.711" y="420.539" fill="#795649" width="4.25" height="17.5"/>
	</g>
</g>
<g id="Layer_6">
	<path fill="#E6E6E6" d="M774.178,58.481h33.775c5.648,0,10.228-4.579,10.228-10.227c0-4.529-2.947-8.364-7.026-9.709
		c0.006-0.174,0.026-0.343,0.026-0.519c0-8.318-6.743-15.061-15.062-15.061c-2.379,0-4.62,0.566-6.62,1.548
		c-3.032-5.358-8.774-8.982-15.371-8.982"/>
	<path fill="#FFFFFF" d="M774.885,15.532c-6.385,0-11.962,3.4-15.063,8.476c-1.699-0.665-3.543-1.042-5.479-1.042
		c-8.317,0-15.061,6.743-15.061,15.061h-0.117c-5.648,0-10.228,4.579-10.228,10.228c0,5.648,4.579,10.227,10.228,10.227h35.77"/>
	<path fill="#F1E31D" d="M740.458,95.385c-17.193,0-31.132-13.938-31.132-31.132s13.938-31.132,31.132-31.132"/>
	<path fill="#E8C333" d="M739.638,33.121c17.193,0,31.132,13.938,31.132,31.132s-13.938,31.132-31.132,31.132"/>
	<path fill="#E6E6E6" d="M125.834,79.956h33.776c5.648,0,10.227-4.579,10.227-10.227c0-4.529-2.947-8.364-7.026-9.709
		c0.005-0.174,0.026-0.343,0.026-0.519c0-8.318-6.743-15.061-15.062-15.061c-2.378,0-4.62,0.566-6.62,1.548
		c-3.033-5.358-8.774-8.982-15.371-8.982"/>
	<path fill="#FFFFFF" d="M126.785,37.006c-6.385,0-11.961,3.4-15.063,8.476c-1.7-0.665-3.543-1.042-5.478-1.042
		c-8.318,0-15.061,6.743-15.061,15.061h-0.118c-5.648,0-10.227,4.579-10.227,10.228c0,5.648,4.579,10.227,10.227,10.227h35.77"/>
	<path fill="#E6E6E6" d="M312.013,122.905h33.776c5.648,0,10.227-4.579,10.227-10.227c0-4.529-2.947-8.364-7.026-9.709
		c0.005-0.174,0.026-0.343,0.026-0.519c0-8.318-6.743-15.061-15.062-15.061c-2.378,0-4.62,0.566-6.62,1.548
		c-3.033-5.358-8.774-8.982-15.371-8.982"/>
	<path fill="#FFFFFF" d="M312.963,79.956c-6.385,0-11.961,3.4-15.063,8.476c-1.7-0.665-3.543-1.042-5.478-1.042
		c-8.318,0-15.061,6.743-15.061,15.061h-0.118c-5.648,0-10.227,4.579-10.227,10.228c0,5.648,4.579,10.227,10.227,10.227h35.77"/>
	<path fill="#E6E6E6" d="M525.834,54.596h33.777c5.648,0,10.227-4.579,10.227-10.227c0-4.529-2.947-8.364-7.025-9.709
		c0.005-0.174,0.025-0.343,0.025-0.519c0-8.318-6.742-15.061-15.062-15.061c-2.378,0-4.62,0.566-6.62,1.548
		c-3.033-5.358-8.774-8.982-15.371-8.982"/>
	<path fill="#FFFFFF" d="M526.785,11.646c-6.385,0-11.961,3.4-15.063,8.476c-1.7-0.665-3.543-1.042-5.478-1.042
		c-8.318,0-15.062,6.743-15.062,15.061h-0.118c-5.648,0-10.227,4.579-10.227,10.228c0,5.648,4.578,10.227,10.227,10.227h35.77"/>
</g>
</svg>
