<?xml version="1.0" encoding="utf-8"?>
<!-- Generator: Adobe Illustrator 16.0.0, SVG Export Plug-In . SVG Version: 6.00 Build 0)  -->
<!DOCTYPE svg PUBLIC "-//W3C//DTD SVG 1.1//EN" "http://www.w3.org/Graphics/SVG/1.1/DTD/svg11.dtd">
<svg version="1.1" id="Layer_1" xmlns="http://www.w3.org/2000/svg" xmlns:xlink="http://www.w3.org/1999/xlink" x="0px" y="0px"
	 width="172.424px" height="160.333px" viewBox="0 0 172.424 160.333" enable-background="new 0 0 172.424 160.333"
	 xml:space="preserve">
<path id="whiteHill" fill="#6EA141" d="M163.399,219.909c26.927-73.158-12.801-155.125-88.74-183.075
	c-75.938-27.95-159.324,8.703-186.251,81.862l137.495,50.605L163.399,219.909z"/>
<g>
	<polygon fill="#324A27" points="55.217,40.833 55.217,3.867 45.178,40.833 	"/>
	<polyline fill="#5E9C4F" points="65.257,40.833 55.217,40.833 55.217,3.867 	"/>
	<rect x="53.487" y="40.738" fill="#795649" width="2.505" height="10.312"/>
</g>
<g>
	<polygon fill="#324A27" points="103.026,133.559 103.026,96.592 92.987,133.559 	"/>
	<polyline fill="#5E9C4F" points="113.065,133.559 103.026,133.559 103.026,96.592 	"/>
	<rect x="101.296" y="133.463" fill="#795649" width="2.506" height="10.311"/>
</g>
<g>
	<polygon fill="#324A27" points="143.743,101.344 143.743,64.377 133.704,101.344 	"/>
	<polyline fill="#5E9C4F" points="153.783,101.344 143.743,101.344 143.743,64.377 	"/>
	<rect x="142.015" y="101.249" fill="#795649" width="2.504" height="10.311"/>
</g>
<g>
	<polygon fill="#6E9FAA" points="93.757,73.743 72.869,73.743 70.226,51.01 96.472,51.01 	"/>
	<polygon fill="#715A5F" points="70.226,51.01 83.304,28.356 96.384,51.01 	"/>
	<rect x="88.915" y="32.168" fill="#715A5F" width="4.072" height="12.96"/>
	<rect x="85.003" y="62.376" fill="#715A5F" width="6.98" height="11.366"/>
	<rect x="74.953" y="53.058" fill="#BADDE7" width="5.734" height="5.734"/>
	<rect x="86.421" y="53.058" fill="#BADDE7" width="5.734" height="5.734"/>
	<rect x="74.953" y="63.196" fill="#BADDE7" width="5.734" height="5.734"/>
</g>
<g>
	<polygon fill="#A86D8B" points="48.028,143.126 27.139,143.126 24.496,120.393 50.743,120.393 	"/>
	<polygon fill="#715A5F" points="24.496,120.393 37.575,97.74 50.653,120.393 	"/>
	<rect x="43.185" y="101.552" fill="#715A5F" width="4.074" height="12.96"/>
	<rect x="39.274" y="131.76" fill="#715A5F" width="6.979" height="11.366"/>
	<rect x="29.224" y="122.442" fill="#BADDE7" width="5.734" height="5.734"/>
	<rect x="40.692" y="122.442" fill="#BADDE7" width="5.734" height="5.734"/>
	<rect x="29.224" y="132.579" fill="#BADDE7" width="5.734" height="5.735"/>
</g>
<g>
	<polygon fill="#324A27" points="14.457,96.237 14.457,59.27 4.418,96.237 	"/>
	<polyline fill="#5E9C4F" points="24.496,96.237 14.457,96.237 14.457,59.27 	"/>
	<rect x="12.727" y="96.141" fill="#795649" width="2.506" height="10.311"/>
</g>
</svg>
