<?xml version="1.0" encoding="utf-8"?>
<!-- Generator: Adobe Illustrator 16.0.0, SVG Export Plug-In . SVG Version: 6.00 Build 0)  -->
<!DOCTYPE svg PUBLIC "-//W3C//DTD SVG 1.1//EN" "http://www.w3.org/Graphics/SVG/1.1/DTD/svg11.dtd">
<svg version="1.1" id="Layer_1" xmlns="http://www.w3.org/2000/svg" xmlns:xlink="http://www.w3.org/1999/xlink" x="0px" y="0px"
	 width="172.424px" height="160.333px" viewBox="0 0 172.424 160.333" enable-background="new 0 0 172.424 160.333"
	 xml:space="preserve">
<path id="whiteHill" fill="#A2BC3D" d="M8.429,219.92C-18.498,146.761,21.23,64.795,97.169,36.845
	c75.938-27.95,159.324,8.703,186.251,81.862l-137.495,50.605L8.429,219.92z"/>
<g>
	<polygon fill="#324A27" points="33.104,141.511 33.104,104.543 43.144,141.511 	"/>
	<polyline fill="#5E9C4F" points="23.065,141.511 33.104,141.511 33.104,104.543 	"/>
	<rect x="32.329" y="141.415" fill="#795649" width="2.506" height="10.312"/>
</g>
<g>
	<polygon fill="#324A27" points="58.204,75.292 58.204,38.327 68.243,75.292 	"/>
	<polyline fill="#5E9C4F" points="48.164,75.292 58.204,75.292 58.204,38.327 	"/>
	<rect x="57.429" y="75.197" fill="#795649" width="2.505" height="10.312"/>
</g>
<g>
	<polygon fill="#6E9FAA" points="122.491,61.917 101.603,61.917 98.96,39.185 125.206,39.185 	"/>
	<polygon fill="#715A5F" points="98.96,39.185 112.038,16.531 125.118,39.185 	"/>
	<rect x="117.648" y="20.343" fill="#715A5F" width="4.073" height="12.96"/>
	<rect x="113.737" y="50.551" fill="#715A5F" width="6.98" height="11.366"/>
	<rect x="103.687" y="41.233" fill="#BADDE7" width="5.734" height="5.734"/>
	<rect x="115.155" y="41.233" fill="#BADDE7" width="5.734" height="5.734"/>
	<rect x="103.687" y="51.371" fill="#BADDE7" width="5.734" height="5.734"/>
</g>
<g>
	<polygon fill="#C98965" points="159.438,138.468 138.549,138.468 135.906,115.735 162.153,115.735 	"/>
	<polygon fill="#715A5F" points="135.906,115.735 148.985,93.082 162.063,115.735 	"/>
	<rect x="154.595" y="96.894" fill="#715A5F" width="4.074" height="12.96"/>
	<rect x="150.685" y="127.102" fill="#715A5F" width="6.979" height="11.366"/>
	<rect x="140.634" y="117.784" fill="#BADDE7" width="5.734" height="5.734"/>
	<rect x="152.103" y="117.784" fill="#BADDE7" width="5.734" height="5.734"/>
	<rect x="140.634" y="127.92" fill="#BADDE7" width="5.734" height="5.735"/>
</g>
<g>
	<polygon fill="#324A27" points="152.103,70.481 152.103,33.514 162.142,70.481 	"/>
	<polyline fill="#5E9C4F" points="142.063,70.481 152.103,70.481 152.103,33.514 	"/>
	<rect x="151.327" y="70.385" fill="#795649" width="2.506" height="10.311"/>
</g>
<g>
	<polygon fill="#324A27" points="101.163,129.112 101.163,92.144 111.202,129.112 	"/>
	<polyline fill="#5E9C4F" points="91.124,129.112 101.163,129.112 101.163,92.144 	"/>
	<rect x="100.388" y="129.015" fill="#795649" width="2.506" height="10.312"/>
</g>
</svg>
